<svg id="Component_7_1" data-name="Component 7 – 1" xmlns="http://www.w3.org/2000/svg" width="24" height="24" viewBox="0 0 24 24">
    <rect id="Rectangle_88" data-name="Rectangle 88" width="24" height="24" rx="3" fill="#041c2a"/>
    <path id="check_24dp_FFFFF_FILL0_wght700_GRAD0_opsz24" d="M153.211-720.429l7.148-7.148a1.369,1.369,0,0,1,1-.423,1.369,1.369,0,0,1,1,.423,1.37,1.37,0,0,1,.423,1,1.37,1.37,0,0,1-.423,1l-8.15,8.15a1.369,1.369,0,0,1-1,.423,1.369,1.369,0,0,1-1-.423l-3.785-3.785a1.37,1.37,0,0,1-.423-1,1.37,1.37,0,0,1,.423-1,1.37,1.37,0,0,1,1-.423,1.37,1.37,0,0,1,1,.423Z" transform="translate(-143 734)" fill="#fff"/>
</svg>
