<svg xmlns="http://www.w3.org/2000/svg" xmlns:xlink="http://www.w3.org/1999/xlink" width="12" height="12" viewBox="0 0 12 12">
    <defs>
        <clipPath id="clip-path">
            <rect id="Rectangle_22" data-name="Rectangle 22" width="12" height="12" fill="#e9540d"/>
        </clipPath>
    </defs>
    <g id="Group_180" data-name="Group 180" transform="translate(0 0)">
        <g id="Group_19" data-name="Group 19" transform="translate(0 0)" clip-path="url(#clip-path)">
            <path id="Path_238" data-name="Path 238" d="M11.566,3.762a6,6,0,1,0-3.328,7.8,6,6,0,0,0,3.328-7.8M7.637,10.07A4.386,4.386,0,1,1,10.07,4.364,4.386,4.386,0,0,1,7.637,10.07" transform="translate(0 0)" fill="#e9540d"/>
            <path id="Path_239" data-name="Path 239" d="M13,17.17a4.188,4.188,0,1,1,1.557-.3,4.193,4.193,0,0,1-1.557.3m0-8.281a4.1,4.1,0,1,0,1.6.33,4.083,4.083,0,0,0-1.6-.33" transform="translate(-6.991 -6.983)" fill="#e9540d"/>
            <path id="Path_240" data-name="Path 240" d="M25.564,26.493a.927.927,0,1,1,.345-.067.93.93,0,0,1-.345.067m0-1.759a.832.832,0,1,0,.773.521.829.829,0,0,0-.773-.521" transform="translate(-19.563 -19.564)" fill="#e9540d"/>
            <path id="Path_241" data-name="Path 241" d="M17.345,15.7a8.917,8.917,0,0,0-3.04-1.876,5.76,5.76,0,0,0,2.187-2.865.139.139,0,0,0-.037-.154,3.737,3.737,0,0,0-2.378-.887.14.14,0,0,0-.131.09,9.093,9.093,0,0,0-.113,3.635,5.723,5.723,0,0,0-3.59-.533.139.139,0,0,0-.117.107,3.733,3.733,0,0,0,.382,2.509.139.139,0,0,0,.142.071,9,9,0,0,0,3.2-1.646,5.8,5.8,0,0,0,1.407,3.289.139.139,0,0,0,.152.044,3.737,3.737,0,0,0,1.949-1.625.14.14,0,0,0-.013-.159m-3.262-1.626a.226.226,0,1,1,.1-.3.226.226,0,0,1-.1.3" transform="translate(-7.979 -7.875)" fill="#e9540d"/>
            <path id="Path_242" data-name="Path 242" d="M26.66,27.3a.643.643,0,1,1,.239-.046.644.644,0,0,1-.239.046m0-1.094a.451.451,0,1,0,.419.283h0a.452.452,0,0,0-.419-.282" transform="translate(-20.66 -20.66)" fill="#e9540d"/>
        </g>
    </g>
</svg>
